<?xml version="1.0" standalone="no"?>
<!DOCTYPE svg PUBLIC "-//W3C//DTD SVG 20010904//EN"
 "http://www.w3.org/TR/2001/REC-SVG-20010904/DTD/svg10.dtd">
<svg version="1.0" xmlns="http://www.w3.org/2000/svg"
 width="512.000000pt" height="512.000000pt" viewBox="0 0 512.000000 512.000000"
 preserveAspectRatio="xMidYMid meet">
<metadata>
Created by potrace 1.16, written by Peter Selinger 2001-2019
</metadata>
<g transform="translate(0.000000,512.000000) scale(0.100000,-0.100000)"
fill="#000000" stroke="none">
<path d="M2268 4523 c-232 -705 -368 -1126 -368 -1136 0 -4 128 -7 285 -7
l285 0 0 870 c0 479 -1 870 -3 870 -1 0 -91 -269 -199 -597z"/>
<path d="M3720 4147 c-316 -161 -682 -348 -814 -416 l-238 -124 201 -201 201
-201 618 618 c339 339 615 617 612 616 -3 0 -264 -132 -580 -292z"/>
<path d="M690 4307 c0 -13 807 -1608 820 -1621 3 -3 97 86 208 197 l202 202
-615 615 c-338 338 -615 612 -615 607z"/>
<path d="M3370 2935 l0 -285 873 1 872 1 -600 198 c-664 220 -1127 370 -1138
370 -4 0 -7 -128 -7 -285z"/>
<path d="M21 2476 c6 -6 1154 -386 1181 -391 13 -3 138 -43 278 -90 140 -47
256 -85 257 -85 2 0 3 128 3 285 l0 285 -862 0 c-474 0 -859 -2 -857 -4z"/>
<path d="M3385 2250 l-200 -200 610 -610 c335 -336 613 -610 618 -610 12 0
-804 1612 -819 1617 -5 2 -99 -87 -209 -197z"/>
<path d="M1420 1314 l-615 -616 565 282 c311 155 567 286 570 290 3 4 116 63
253 131 l247 124 -203 203 -202 202 -615 -616z"/>
<path d="M2641 888 l1 -863 199 600 c109 330 236 718 283 863 l83 262 -283 0
-284 0 1 -862z"/>
</g>
</svg>
